<svg width="375" height="422" viewBox="0 0 375 422" fill="none" xmlns="http://www.w3.org/2000/svg">
<g clip-path="url(#clip0_1303_5986)">
<path d="M602.073 307.578C628.028 287.809 640.424 254.589 632.663 222.899C632.471 222.112 632.267 221.326 632.053 220.542C626.908 201.732 614.179 183.854 595.626 177.843C580.049 172.797 563.045 176.678 546.794 174.671C514.892 170.731 490.159 144.919 472.757 117.893C455.354 90.8668 441.979 60.6152 418.855 38.2879C380.738 1.48502 318.559 -6.43866 271.3 17.5172C224.04 41.4732 193.936 94.6215 195.22 147.59C196.504 200.559 227.949 251.201 273.616 278.07C290.392 287.941 309.795 294.933 329.105 292.486C345.86 290.363 361.084 281.36 377.76 278.688C403.978 274.485 430.03 286.34 452.707 300.154C475.385 313.967 497.289 330.341 523.059 336.745C548.081 342.964 579.081 325.09 602.073 307.578Z" fill="#F2F2F2"/>
<path d="M396.705 71.0232H138.135C132.743 71.0295 127.573 73.1744 123.76 76.9875C119.947 80.8007 117.802 85.9706 117.795 91.3632V220.053C117.802 225.446 119.947 230.616 123.76 234.429C127.573 238.242 132.743 240.387 138.135 240.393H396.705C402.098 240.389 407.269 238.244 411.083 234.431C414.896 230.617 417.041 225.446 417.045 220.053V91.3632C417.041 85.9701 414.896 80.7992 411.083 76.9857C407.269 73.1722 402.098 71.0278 396.705 71.0232V71.0232Z" fill="white"/>
<path d="M396.706 241.396H138.14C132.482 241.389 127.058 239.139 123.057 235.138C119.056 231.138 116.806 225.713 116.8 220.055V91.3616C116.806 85.7037 119.056 80.2794 123.057 76.2787C127.058 72.278 132.482 70.0276 138.14 70.0212H396.706C402.364 70.0276 407.788 72.278 411.789 76.2787C415.79 80.2794 418.04 85.7037 418.047 91.3616V220.055C418.04 225.713 415.79 231.138 411.789 235.138C407.788 239.139 402.364 241.389 396.706 241.396ZM138.14 72.0212C133.012 72.0271 128.096 74.0666 124.471 77.6924C120.845 81.3181 118.805 86.234 118.8 91.3616V220.055C118.805 225.183 120.845 230.099 124.471 233.725C128.096 237.35 133.012 239.39 138.14 239.396H396.706C401.834 239.39 406.75 237.35 410.375 233.725C414.001 230.099 416.041 225.183 416.047 220.055V91.3616C416.041 86.234 414.001 81.3181 410.375 77.6924C406.75 74.0666 401.834 72.0271 396.706 72.0212H138.14Z" fill="#CCCCCC"/>
<path d="M408.6 276.972H160.812C158.67 276.972 156.616 276.122 155.101 274.607C153.587 273.093 152.736 271.038 152.736 268.897C152.736 266.755 153.587 264.701 155.101 263.186C156.616 261.672 158.67 260.821 160.812 260.821H408.6C410.742 260.821 412.796 261.672 414.311 263.186C415.825 264.701 416.676 266.755 416.676 268.897C416.676 271.038 415.825 273.093 414.311 274.607C412.796 276.122 410.742 276.972 408.6 276.972Z" fill="#E6E6E6"/>
<path d="M240.248 199.965C238.78 199.96 237.337 199.585 236.053 198.872C234.681 198.132 233.535 197.031 232.741 195.689C231.947 194.346 231.534 192.812 231.546 191.252V119.43C231.546 117.873 231.964 116.344 232.757 115.004C233.55 113.663 234.688 112.56 236.053 111.81C237.418 111.061 238.959 110.691 240.516 110.74C242.072 110.79 243.587 111.256 244.902 112.091L313.032 148.003C314.268 148.788 315.285 149.872 315.99 151.155C316.695 152.437 317.064 153.878 317.064 155.341C317.064 156.805 316.695 158.245 315.99 159.528C315.285 160.811 314.268 161.895 313.032 162.68L244.902 198.591C243.513 199.483 241.898 199.96 240.248 199.965V199.965Z" fill="#F2F2F2"/>
<path d="M204.441 209.448L149.137 209.819C149.137 209.819 117.64 199.665 103.355 201.787L97.8939 223.242L137.129 236.241L205.412 226.334C206.945 227.108 208.654 227.465 210.368 227.368C212.082 227.272 213.741 226.725 215.177 225.784C216.613 224.843 217.775 223.54 218.548 222.006C219.32 220.473 219.675 218.763 219.576 217.049C219.478 215.335 218.929 213.677 217.986 212.242C217.043 210.807 215.739 209.646 214.205 208.875C212.67 208.105 210.96 207.752 209.246 207.853C207.532 207.953 205.875 208.503 204.441 209.448L204.441 209.448Z" fill="#A0616A"/>
<path d="M136.66 238.319L71.0466 219.448L65.0731 197.19C63.517 194.221 62.8224 190.875 63.0679 187.532C63.3134 184.188 64.4893 180.98 66.4625 178.269V178.269C72.064 170.683 76.4424 178.218 84.3919 183.291C98.3276 184.277 133.111 196.179 147.231 209.96L146.119 218.431L136.66 238.319Z" fill="#3F3D56"/>
<path d="M193.748 220.151C192.281 220.147 190.838 219.771 189.554 219.059C188.181 218.318 187.036 217.217 186.242 215.875C185.448 214.532 185.034 212.999 185.047 211.439V139.616C185.047 138.059 185.465 136.53 186.258 135.19C187.051 133.85 188.189 132.747 189.554 131.997C190.919 131.247 192.46 130.877 194.016 130.927C195.573 130.976 197.088 131.443 198.402 132.278L266.533 168.189C267.769 168.974 268.786 170.058 269.491 171.341C270.196 172.624 270.565 174.064 270.565 175.528C270.565 176.991 270.196 178.431 269.491 179.714C268.786 180.997 267.769 182.081 266.533 182.866L198.402 218.777C197.014 219.67 195.399 220.146 193.748 220.151V220.151Z" fill="#6C63FF"/>
<path d="M63.3492 338.289L63.204 338.085C55.4468 327.225 67.1136 301.128 68.8732 297.345L61.4619 294.94L54.9812 240.1L50.2416 221.155C48.4557 213.993 48.6079 206.485 50.6826 199.402C52.7572 192.318 56.6795 185.914 62.0469 180.847L73.0025 170.517L86.3172 150.817H107.788L115.15 164.723C122.288 166.372 128.621 170.474 133.045 176.312C137.47 182.151 139.706 189.357 139.364 196.674L137.696 233.145L144.228 278.555L144.232 286.773L155.572 305.366L158.042 316.893C159.064 318.242 165.812 327.239 165.812 329.699C165.812 330.068 165.539 330.425 164.954 330.821C160.356 333.935 134.94 340.283 123.691 335.781C111.708 330.99 64.0767 338.178 63.5968 338.251L63.3492 338.289Z" fill="#3F3D56"/>
<path d="M99.8264 144.457C115.531 144.457 128.262 131.726 128.262 116.021C128.262 100.316 115.531 87.5849 99.8264 87.5849C84.1216 87.5849 71.3904 100.316 71.3904 116.021C71.3904 131.726 84.1216 144.457 99.8264 144.457Z" fill="#A0616A"/>
<path d="M205.386 137.853L161.513 171.526C161.513 171.526 130.271 182.438 120.162 192.751L128.755 213.154L167.884 199.84L216.351 150.731C218.04 150.423 219.619 149.676 220.927 148.564C222.236 147.453 223.228 146.016 223.805 144.399C224.382 142.782 224.523 141.041 224.213 139.352C223.903 137.663 223.154 136.086 222.041 134.779C220.928 133.472 219.49 132.481 217.872 131.906C216.255 131.331 214.514 131.192 212.825 131.504C211.137 131.815 209.56 132.566 208.254 133.681C206.948 134.795 205.959 136.234 205.386 137.853V137.853Z" fill="#A0616A"/>
<path d="M168.765 201.779L107.818 219.626L86.863 212.189C83.83 210.761 81.2571 208.512 79.4349 205.698C77.6128 202.884 76.614 199.616 76.5516 196.264C76.4394 186.834 84.4784 190.2 93.8786 189.448C105.585 181.823 140.503 170.321 160.079 172.787L164.304 180.213L168.765 201.779Z" fill="#3F3D56"/>
<path d="M119.325 83.1894C117.287 83.1289 117.987 79.2874 116.345 78.0619C116.337 78.0991 116.329 78.1362 116.32 78.1732C116.105 79.003 115.629 79.7418 114.962 80.2807C114.295 80.8196 113.473 81.1302 112.617 81.1667C111.76 81.2033 110.915 80.9638 110.204 80.4837C109.494 80.0035 108.957 79.308 108.672 78.4995C108.4 77.5643 107.907 76.7082 107.235 76.0031C106.562 75.2981 105.731 74.7648 104.81 74.448C104.708 78.0086 102.014 81.0988 98.8012 82.6367C95.5882 84.1746 91.9246 84.4305 88.3629 84.4832C84.8012 84.5358 81.1882 84.4166 77.7343 85.2882C74.2805 86.1597 70.921 88.2089 69.4454 91.451C67.9697 94.6931 69.0225 99.1568 72.2493 100.666C69.7495 100.679 67.6285 102.742 66.7642 105.087C66.0557 107.493 65.8709 110.023 66.2222 112.506C66.9247 121.701 68.6375 131.601 75.3331 137.942C80.4361 142.775 87.7403 144.722 94.7686 144.694C101.797 144.666 100.561 144.02 107.357 142.226C107.357 142.226 113.818 123.705 112.191 121.883C110.564 120.061 109.213 117.729 109.507 115.304C109.801 112.879 112.407 110.707 114.669 111.63C114.289 110.658 114.002 110.473 113.823 110.522C113.937 110.246 114.037 109.964 114.121 109.677C114.547 108.216 115.314 106.877 116.358 105.77C117.402 104.663 118.693 103.82 120.127 103.309C121.575 102.839 123.132 102.824 124.589 103.265C126.046 103.706 127.333 104.582 128.278 105.776C135.719 98.7971 131.102 83.5392 119.325 83.1894Z" fill="#2F2E41"/>
<path d="M359.075 71.0232V98.1832C359.075 99.5332 356.715 100.663 353.535 100.973C353.508 100.972 353.481 100.975 353.455 100.983C352.925 101.023 352.365 101.053 351.795 101.053C350.042 101.085 348.297 100.801 346.645 100.213C346.495 100.153 346.345 100.083 346.195 100.023C346.055 99.9432 345.905 99.8732 345.765 99.7932C344.975 99.3232 344.515 98.7732 344.515 98.1832V71.0232H359.075Z" fill="#CCCCCC"/>
</g>
<defs>
<clipPath id="clip0_1303_5986">
<rect width="660.472" height="645.448" fill="white" transform="translate(0 -65)"/>
</clipPath>
</defs>
</svg>
